<?xml version="1.0" encoding="UTF-8"?>
<svg id="Capa_2" data-name="Capa 2" xmlns="http://www.w3.org/2000/svg" viewBox="0 0 437.04 112.32">
  <g id="Capa_1-2" data-name="Capa 1">
    <g>
      <polygon points="194.65 6.95 205.21 42.63 215.64 6.95 232.91 6.95 232.91 59.63 222.12 59.63 222.12 18.92 210.49 59.65 199.69 59.4 188.54 18.92 188.54 59.63 177.74 59.63 177.74 6.95 194.65 6.95"/>
      <polygon points="293.96 6.95 317.35 41.91 317.35 7.3 317.71 6.95 328.14 6.95 328.14 59.63 316.39 59.63 293.6 25.63 293.6 59.63 282.8 59.63 282.8 7.3 283.16 6.95 293.96 6.95"/>
      <path d="M401.25,6.3c16.03-1.26,29.52,5.9,31.44,22.83,2.39,21.1-11.71,33.72-32.44,31.19-31.35-3.82-30.34-51.56,1-54.02ZM402.69,15.4c-12.13,1.24-15.15,14.54-12.55,24.6,4,15.49,26.65,15.46,30.23-.48,2.97-13.23-2.45-25.67-17.68-24.12Z"/>
      <path d="M65.48,59.63h-12.47l-5.2-11.94-22.39.08-4.8,11.86h-12.23L30.7,7.06c3.52.11,7.97-.54,11.41-.13.26.03.53,0,.71.25l22.66,52.46ZM44.38,38.8l-7.8-19.4-7.8,19.4h15.59Z"/>
      <path d="M131.69,6.95v32.22c.41,1.98.05,3.85.65,5.81,1.82,6.03,9.29,7.31,14.72,6.17,5.77-1.22,6.89-4.95,7.19-10.3.61-10.81-.47-22.2-.02-33.07l.37-.83h11.15v32.7c.09,12.17-4.53,19.12-16.94,20.68-11.6,1.45-25.43-.66-27.85-14.05-2.18-12.08.02-26.18-.8-38.5l.37-.83h11.15Z"/>
      <polygon points="83.47 7.42 83.47 50.77 112.02 50.77 112.02 59.63 71.96 59.63 71.96 7.42 83.47 7.42"/>
      <path d="M412.77,70c12.66-1.09,21.47,6.14,20.43,19.2-.96,12.09-11.91,16.63-22.8,14.62-18.15-3.34-17.92-32.08,2.36-33.83ZM413.48,75.75c-7.25.89-8.97,7.63-8.31,13.91,1.12,10.71,16.67,12.02,19.71,2.25,2.68-8.62-1.34-17.39-11.39-16.17Z"/>
      <path d="M98.83,92.44v-20.84h6.96v31.37h-7.56c-5.1-6.37-9.44-13.39-14.44-19.81-.15-.2,0-.44-.55-.3v20.12h-6.96v-31.37h7.32l15.23,20.84Z"/>
      <polygon points="236.99 71.61 252.1 92.44 252.1 71.61 259.06 71.61 259.06 102.98 251.5 102.98 236.51 82.86 236.51 102.98 229.55 102.98 229.55 71.61 236.99 71.61"/>
      <rect x="249.7" y="6.95" width="11.51" height="52.69"/>
      <rect x="349.97" y="6.95" width="11.51" height="52.69"/>
      <path d="M189.74,102.74l12.25-30.99c.12-.26.31-.33.58-.38,1.77-.32,4.38.25,6.25-.02l13.06,31.39h-7.2l-2.61-7.04-12.74-.03-2.63,7.07h-6.96ZM201.25,90.29h8.64l-4.2-11.26-4.44,11.26Z"/>
      <path d="M35.98,102.74l12.51-31.33,6.57-.06,13.06,31.39h-6.84l-3.15-7.15-12.59.12-2.61,7.04h-6.96ZM56.13,90.29l-4.08-11.26-4.55,11.26h8.64Z"/>
      <path d="M29.5,71.61v6.23c-3.77-.98-10.21-3.21-13.75-.92-1.91,1.23-1.84,3.2,0,4.47,4.43,3.06,14.25,3.24,15.17,10.24.68,5.17-1.47,9.22-6.33,11.12-5.54,2.16-11.92.71-17.4-.96v-6.95c1.92.99,3.95,1.88,6.05,2.46,3.09.85,7.93,1.62,10.35-1.05,4.26-4.69-7.08-6.92-9.78-8.15-5.37-2.46-7.89-8.03-4.57-13.36,3.95-6.33,14.15-4.44,20.25-3.13Z"/>
      <path d="M174.5,71.85c.81.07,2.18.36,3,.6,5.99,1.73,6.7,11.99,1.66,15.31l-3.58,1.57c.27.01.53.17.73.35,3.79,3.42,5.89,8.57,8.15,13.06h-6.12l-7.08-11.61c-1.34-1.32-3.24-1.38-5.03-1.32v12.93h-5.52v-30.89c4.47.28,9.38-.37,13.79,0ZM166.23,85.02c2.61-.05,5.43.11,8.01-.26,3.32-.48,3.65-5.87,1.03-7.21-.14-.07-1.18-.43-1.25-.43h-7.8v7.9Z"/>
      <path d="M350.69,78.79c-3.27-1-9.76-3.24-12.7-.83-2.58,2.12-.18,4.08,1.82,5.11,5.79,2.96,12.98,3.5,12.31,12.12-.82,10.53-14.32,10.79-21.58,6.95v-6.59c3.36,1.77,7.23,3.55,11.16,3.11,3.6-.4,6.28-4.08,2.5-6.57-5.27-3.47-13.58-2.75-13.17-11.99.45-10.2,12.57-9.99,19.67-7.19v5.87Z"/>
      <path d="M386.43,72.09v5.99c-6.09-2.79-13.92-4.56-17.79,2.47-2.63,4.78-2.07,11.48,2.2,15.13,4.6,3.94,10.92,2.63,16.07.6v5.15c-11.87,5.52-26.29.34-26.3-14.17,0-14.65,13.4-19.47,25.82-15.17Z"/>
      <path d="M298.16,78.79c-2.09-.97-4.57-2.03-6.86-2.37-16.17-2.43-17,23.84.26,22.48,2.45-.19,4.78-1.17,7.08-1.91v5.51c-4.85,1.5-9.86,2.42-14.87,1.08-15.14-4.05-15.03-27.38-.18-31.56,4.61-1.3,10.16-.8,14.57.9v5.87Z"/>
      <polygon points="150.16 71.13 150.16 76.4 136.84 76.4 136.49 76.76 136.49 84.06 148.48 84.06 148.48 89.21 148.12 89.57 136.49 89.57 136.49 102.98 130.97 102.98 130.97 71.13 150.16 71.13"/>
      <rect x="312.79" y="71.61" width="7.44" height="31.13"/>
    </g>
  </g>
</svg>